<?xml version="1.0" encoding="UTF-8"?>
<!DOCTYPE svg PUBLIC "-//W3C//DTD SVG 1.1//EN" "http://www.w3.org/Graphics/SVG/1.1/DTD/svg11.dtd">
<svg xmlns="http://www.w3.org/2000/svg" version="1.1" width="512px" height="512px" style="shape-rendering:geometricPrecision; text-rendering:geometricPrecision; image-rendering:optimizeQuality; fill-rule:evenodd; clip-rule:evenodd" xmlns:xlink="http://www.w3.org/1999/xlink">
<g><path style="opacity:0.984" fill="#000000" d="M 183.5,-0.5 C 187.167,-0.5 190.833,-0.5 194.5,-0.5C 226.642,3.38213 258.976,6.88213 291.5,10C 295.526,27.6522 298.86,45.4855 301.5,63.5C 300.554,66.7263 299.054,69.7263 297,72.5C 255.974,128.026 215.14,183.693 174.5,239.5C 152.833,218.5 131.5,197.167 110.5,175.5C 135.23,116.971 159.563,58.3045 183.5,-0.5 Z"/></g>
<g><path style="opacity:0.983" fill="#000000" d="M 309.5,102.5 C 338.215,106.221 366.882,110.221 395.5,114.5C 396.192,115.025 396.692,115.692 397,116.5C 400.603,143.885 404.436,171.219 408.5,198.5C 356.1,237.729 303.267,276.396 250,314.5C 231.36,297.027 213.194,279.027 195.5,260.5C 233.519,207.775 271.519,155.108 309.5,102.5 Z"/></g>
<g><path style="opacity:0.964" fill="#000000" d="M 98.5,205.5 C 118.082,223.58 137.248,242.246 156,261.5C 156.167,262.167 156.333,262.833 156.5,263.5C 137.941,290.394 118.608,316.727 98.5,342.5C 84.6391,329.473 71.3058,315.973 58.5,302C 71.5479,269.683 84.8812,237.516 98.5,205.5 Z"/></g>
<g><path style="opacity:0.984" fill="#000000" d="M 511.5,316.5 C 511.5,320.167 511.5,323.833 511.5,327.5C 452.855,351.821 394.188,376.154 335.5,400.5C 313.68,379.181 292.014,357.681 270.5,336C 326.656,294.422 382.989,253.089 439.5,212C 441.438,210.128 443.771,209.295 446.5,209.5C 464.864,212.032 483.031,215.365 501,219.5C 504.118,252.024 507.618,284.358 511.5,316.5 Z"/></g>
<g><path style="opacity:0.958" fill="#000000" d="M 177.5,284.5 C 194.288,299.454 210.288,315.288 225.5,332C 199.617,351.959 173.283,371.459 146.5,390.5C 137.348,381.848 128.348,373.014 119.5,364C 138.665,337.342 157.998,310.842 177.5,284.5 Z"/></g>
<g><path style="opacity:0.986" fill="#000000" d="M 113.5,511.5 C 104.5,511.5 95.5,511.5 86.5,511.5C 38.7513,501.794 9.75126,473.127 -0.5,425.5C -0.5,415.833 -0.5,406.167 -0.5,396.5C 2.68061,378.472 9.84728,362.139 21,347.5C 27.3016,340.197 33.9683,333.197 41,326.5C 88.8333,374.333 136.667,422.167 184.5,470C 173.668,481.507 161.668,491.507 148.5,500C 137.272,505.576 125.606,509.41 113.5,511.5 Z"/></g>
<g><path style="opacity:0.964" fill="#000000" d="M 245.5,353.5 C 246.552,353.351 247.552,353.517 248.5,354C 267.681,373.014 286.681,392.18 305.5,411.5C 304.221,413.146 302.555,414.313 300.5,415C 274.752,425.471 249.086,436.138 223.5,447C 218.261,449.304 212.928,450.97 207.5,452C 193.986,438.653 180.653,425.153 167.5,411.5C 193.53,392.158 219.53,372.824 245.5,353.5 Z"/></g>
</svg>
