<svg xmlns="http://www.w3.org/2000/svg" width="511.832" height="493.533" viewBox="0 0 511.832 493.533">
  <g id="basketball" transform="translate(-0.168 502.812)">
    <path id="Tracé_9" data-name="Tracé 9" d="M287.8-502A43.247,43.247,0,0,0,260-483.8c-5.4,8.1-7.3,15.2-6.8,25.8.3,7,.9,9.7,3.5,15.2a41.737,41.737,0,0,0,20.2,20.6c6.6,3.3,8.5,3.7,16.2,4,7,.3,10.1,0,15.4-1.8a42.159,42.159,0,0,0,28.1-48.6,41.742,41.742,0,0,0-32.2-32.9C296.9-503.1,294.8-503.2,287.8-502Z" fill="#4f44ff"/>
    <path id="Tracé_10" data-name="Tracé 10" d="M222.5-409.1c-3.5,1.5-9.3,8.9-43.9,55.4L138.7-300l-20.6-.1H97.5L61.2-344.5c-25.6-31.2-37.3-44.8-39.7-45.9C14.4-393.8,6-391,2-383.8a14.689,14.689,0,0,0,.8,15.5c1.1,1.5,18.7,23,39.1,47.8l37,45,.1,50v50L57-103C44.9-63.1,35-28.9,35-27a18.79,18.79,0,0,0,8.1,14.7c8.4,5.6,20.6,2.8,25.3-5.8,1-1.9,10.9-33.3,22-69.9l20.2-66.5,7.2-.3c6.2-.2,7.2-.1,7.2,1.4,0,.9,2.9,30.7,6.5,66.3,5.9,57.4,6.8,65,8.8,68.5a17.766,17.766,0,0,0,28.2,4.1c6.5-6.6,6.6-3.2-1.9-86.6L159-176.5V-276.6l41.4-55.7c22.8-30.6,42-57.2,42.6-59.2,2.3-7-1.6-15.2-8.7-18.1C230-411.4,227.3-411.3,222.5-409.1Z" fill="#4f44ff"/>
    <path id="Tracé_11" data-name="Tracé 11" d="M108-384.7a38.193,38.193,0,0,0-22.7,20.2c-2.5,5.3-2.8,7.2-2.8,15.5,0,8.7.3,10.1,3.2,16.1a37.924,37.924,0,0,0,18.1,17.7c4.9,2.3,7,2.7,15.2,2.7,8.4,0,10.3-.3,15.7-2.9,7.3-3.3,14.7-10.7,18.4-18.1,2.1-4.3,2.4-6.4,2.4-15.5,0-9.6-.2-11-2.9-16.2a40.916,40.916,0,0,0-17.3-17.4c-4.8-2.4-7-2.9-14.7-3.1C115.4-385.8,110-385.4,108-384.7Z" fill="#4f44ff"/>
    <path id="Tracé_12" data-name="Tracé 12" d="M392.4-376.9c-16.5,2.1-30,16.3-31.9,33.4-.6,6.2-.8,6.5-3,5.9-2.5-.6-5.8,2.8-4.9,5.1.4.9-.6,1.1-3.8.8-5.2-.6-9.5,1-16.2,6.1l-4.8,3.8-24.7-16.5C274-357.7,273.4-358,267.7-358c-11.3,0-18.4,13.1-12.3,22.5.9,1.4,25.1,18.1,53.6,37.2,51.4,34.2,52,34.7,52,38,0,6.1-3,23.4-13,75.4-5.5,28.4-10,52.5-10,53.7,0,4,4,7.2,9.8,7.9,2.9.3,5.2,1.1,5.2,1.7,0,.7-4,21.8-9,47-4.9,25.3-9,47.1-9,48.4,0,4.4,4,11.2,8.2,14C352-6.4,365-10,369-19.3c1-2.3,6.1-26.6,11.5-54l9.8-49.8,9.1.3,9.1.3L415.8-73c4.6,31.2,8,51,9.2,53.7,4.7,10.8,19.8,13.4,28.3,4.9,6.7-6.7,6.7-6.6-1.2-59.7-3.9-26.1-7.1-47.7-7.1-48.1,0-.3,1.8-.9,4-1.3,4.4-.7,8-4.3,8-8,0-1.2-4.5-25.4-9.9-53.6-9.1-47-12-63.5-13.5-77.4l-.5-5,18.5-17c17.7-16.2,18.8-17,22.6-17,4.5,0,5.5-1.2,3.9-4.4-1-1.7.7-3.6,14.7-16.6,16.1-15,19.2-18.8,19.2-23.9,0-4.9-3.6-11-7.9-13.4-8.4-4.7-12.1-3-31.7,15.2-13.1,12.1-16.1,14.5-17.8,13.9-1.2-.5-4.5-.8-7.4-.8-3.5,0-5.1-.4-4.8-1.1.8-2.2-2.5-5.6-4.8-5-2.1.5-2.3,0-3.3-6.8-1.3-9.1-4.4-15.5-10.5-21.8A37.3,37.3,0,0,0,392.4-376.9Zm-9.8,70.6a36.625,36.625,0,0,0,39.7-6.5c2.5-2.4,2.7-2.4,2.7-.6,0,4.3,4.8,5.8,8.3,2.6,1.6-1.4,1.9-1.4,1.6-.2-.2.9-4.9,5.7-10.3,10.8l-9.9,9.2H374.3l-10.2-6.6L354-304.2l3-2.8c1.7-1.5,3-3.4,3-4.1,0-.8.6-.7,1.8.4,3.4,3.1,8.2,1.5,8.2-2.6,0-1.6.5-1.4,3.7,1.3A41.2,41.2,0,0,0,382.6-306.3Z" fill="#4f44ff"/>
  </g>
</svg>
