<svg xmlns="http://www.w3.org/2000/svg" width="226.016" height="42.004" viewBox="0 0 226.016 42.004">
  <g id="Groupe_237" data-name="Groupe 237" transform="translate(-3084.001 -1168.996)">
    <g id="team" transform="translate(3084.003 1169)">
      <path id="Tracé_472" data-name="Tracé 472" d="M237.017-510.721a1.743,1.743,0,0,0-.931.97,28.46,28.46,0,0,0-.086,3.112c0,3.1.016,3.175.516,3.652a1.468,1.468,0,0,0,1.05.442,1.468,1.468,0,0,0,1.05-.442c.5-.469.516-.547.516-3.644s-.023-3.277-.469-3.722a1.586,1.586,0,0,0-1.646-.368Z" transform="translate(-217.589 510.808)" fill="#fff"/>
      <path id="Tracé_473" data-name="Tracé 473" d="M99.44-460.648a2.625,2.625,0,0,1-.289.07,1.557,1.557,0,0,0-.5.3,1.537,1.537,0,0,0-.461,1.76,41.559,41.559,0,0,0,4.458,4.481,1.567,1.567,0,0,0,1.744-.36,1.567,1.567,0,0,0,.281-1.759c-.117-.235-4.145-4.254-4.372-4.364a2.085,2.085,0,0,0-.861-.128Z" transform="translate(-90.453 464.582)" fill="#fff"/>
      <path id="Tracé_474" data-name="Tracé 474" d="M332.561-460.445a1.63,1.63,0,0,0-.391.149c-.086.047-1.1,1.024-2.237,2.182-1.979,1.986-2.088,2.112-2.166,2.479a1.561,1.561,0,0,0,.884,1.775,1.452,1.452,0,0,0,1.1.063c.258-.07.665-.438,2.377-2.127,2.127-2.111,2.346-2.4,2.354-2.972a1.739,1.739,0,0,0-.86-1.423,1.888,1.888,0,0,0-1.056-.126Z" transform="translate(-302.146 464.41)" fill="#fff"/>
      <path id="Tracé_475" data-name="Tracé 475" d="M61.144-355.754a4.284,4.284,0,0,0-2.581,1.963,5.144,5.144,0,0,0-.563,2.1,5.144,5.144,0,0,0,.563,2.1,4.774,4.774,0,0,0,1.556,1.556,5.144,5.144,0,0,0,2.1.563,5.144,5.144,0,0,0,2.1-.563,4.774,4.774,0,0,0,1.556-1.556,5.145,5.145,0,0,0,.563-2.1,5.144,5.144,0,0,0-.563-2.1,4.774,4.774,0,0,0-1.556-1.556,5.007,5.007,0,0,0-2.135-.555,5.275,5.275,0,0,0-1.04.148Z" transform="translate(-53.509 368.016)" fill="#fff"/>
      <path id="Tracé_476" data-name="Tracé 476" d="M349.144-355.754a4.284,4.284,0,0,0-2.581,1.963,5.143,5.143,0,0,0-.563,2.1,5.145,5.145,0,0,0,.563,2.1,4.774,4.774,0,0,0,1.556,1.556,5.144,5.144,0,0,0,2.1.563,5.146,5.146,0,0,0,2.1-.563,4.774,4.774,0,0,0,1.556-1.556,5.145,5.145,0,0,0,.563-2.1,5.144,5.144,0,0,0-.563-2.1,4.774,4.774,0,0,0-1.556-1.556,5.007,5.007,0,0,0-2.135-.555A5.275,5.275,0,0,0,349.144-355.754Z" transform="translate(-318.987 368.016)" fill="#fff"/>
      <path id="Tracé_477" data-name="Tracé 477" d="M17.3-303.891c-.454.2-.845.641-1.658,1.885a8.966,8.966,0,0,1-2.909,3.05c-.665.344-.829.36-2.377.188A8.294,8.294,0,0,0,4.37-297.2c-3.418,2.584-4.57,7.621-3.285,14.393.258,1.345.633,1.955,1.47,2.362.336.172.469.18,2.229.2a7.829,7.829,0,0,0,1.924-.063,2.826,2.826,0,0,0-.2-.852,21.142,21.142,0,0,1-1.2-7.664c.086-.9.188-1.1.555-1.1.4,0,.477.242.375,1.142a21.371,21.371,0,0,0,1.392,8.024l.2.532H11.6c2.456,0,3.871-.031,4.074-.086a2.4,2.4,0,0,0,1.65-1.674,11.691,11.691,0,0,0,.141-2.933,25.649,25.649,0,0,0-.36-5.24,17.949,17.949,0,0,0-1.361-4.63c-.321-.626-.188-1.032.313-.985.219.023.274.086.555.641a2.812,2.812,0,0,0,.407.649,17.5,17.5,0,0,0,2.6-3.668,8.668,8.668,0,0,0,.868-2.362c0-.109.039-.2.078-.2s.078.094.078.2a8.668,8.668,0,0,0,.868,2.362,17.5,17.5,0,0,0,2.6,3.668,2.812,2.812,0,0,0,.407-.649c.282-.555.336-.618.555-.641a.416.416,0,0,1,.347.085.416.416,0,0,1,.153.322,3.929,3.929,0,0,1-.3.845,22.8,22.8,0,0,0-1.627,8.665,13.855,13.855,0,0,0,.289,4.246,2.686,2.686,0,0,0,1.157,1.165c.368.18.368.18,4.286.2l3.918.023.242-.688a20.505,20.505,0,0,0,1.345-7.859c-.094-.915-.016-1.157.383-1.157.375,0,.477.2.555,1.126a21.11,21.11,0,0,1-1.2,7.633,2.519,2.519,0,0,0-.211.884,14.25,14.25,0,0,0,1.932.039c1.783-.023,1.885-.031,2.244-.211a2.558,2.558,0,0,0,1.087-1.048,20.307,20.307,0,0,0,.845-5.1c.242-4.278-.719-7.578-2.854-9.775a8.064,8.064,0,0,0-6.89-2.393c-1.478.164-1.728.149-2.276-.133a9.074,9.074,0,0,1-3.2-3.335c-.907-1.4-1.353-1.76-2.151-1.76a3.092,3.092,0,0,0-2.463,2.065,1.025,1.025,0,0,1-.141.36,1.025,1.025,0,0,1-.141-.36,3.379,3.379,0,0,0-1.681-1.877,1.913,1.913,0,0,0-1.423-.079Z" transform="translate(-0.575 320.173)" fill="#fff"/>
    </g>
    <text id="SPORTMATES" transform="translate(3133.017 1203)" fill="#fff" font-size="28" font-family="OpenSans-ExtraboldItalic, Open Sans" font-weight="800" font-style="italic"><tspan x="0" y="0">SPORTMATES</tspan></text>
  </g>
</svg>
