<?xml version="1.0" encoding="UTF-8"?>
<!DOCTYPE svg PUBLIC "-//W3C//DTD SVG 1.1//EN" "http://www.w3.org/Graphics/SVG/1.1/DTD/svg11.dtd">
<svg xmlns="http://www.w3.org/2000/svg" version="1.1" width="512px" height="512px" style="shape-rendering:geometricPrecision; text-rendering:geometricPrecision; image-rendering:optimizeQuality; fill-rule:evenodd; clip-rule:evenodd" xmlns:xlink="http://www.w3.org/1999/xlink">
<g><path style="opacity:0.983" fill="#000000" d="M 229.5,-0.5 C 246.833,-0.5 264.167,-0.5 281.5,-0.5C 371.769,6.62651 411.269,55.2932 400,145.5C 397.199,191.905 382.866,234.239 357,272.5C 336,309.167 315,345.833 294,382.5C 293.5,400.83 293.333,419.164 293.5,437.5C 299.5,437.5 305.5,437.5 311.5,437.5C 311.5,462.167 311.5,486.833 311.5,511.5C 274.167,511.5 236.833,511.5 199.5,511.5C 199.5,486.833 199.5,462.167 199.5,437.5C 205.5,437.5 211.5,437.5 217.5,437.5C 217.667,419.164 217.5,400.83 217,382.5C 192.504,340.169 167.504,298.169 142,256.5C 127.482,230.28 118.149,202.28 114,172.5C 109.756,145.942 108.756,119.275 111,92.5C 116.142,53.3711 136.976,26.5378 173.5,12C 191.758,5.35363 210.424,1.18696 229.5,-0.5 Z M 181.5,71.5 C 191.167,71.5 200.833,71.5 210.5,71.5C 210.5,81.1667 210.5,90.8333 210.5,100.5C 200.833,100.5 191.167,100.5 181.5,100.5C 181.5,90.8333 181.5,81.1667 181.5,71.5 Z M 241.5,71.5 C 250.833,71.5 260.167,71.5 269.5,71.5C 269.5,81.1667 269.5,90.8333 269.5,100.5C 260.167,100.5 250.833,100.5 241.5,100.5C 241.5,90.8333 241.5,81.1667 241.5,71.5 Z M 300.5,71.5 C 310.167,71.5 319.833,71.5 329.5,71.5C 329.5,81.1667 329.5,90.8333 329.5,100.5C 319.833,100.5 310.167,100.5 300.5,100.5C 300.5,90.8333 300.5,81.1667 300.5,71.5 Z M 181.5,131.5 C 191.167,131.5 200.833,131.5 210.5,131.5C 210.5,141.167 210.5,150.833 210.5,160.5C 200.833,160.5 191.167,160.5 181.5,160.5C 181.5,150.833 181.5,141.167 181.5,131.5 Z M 241.5,131.5 C 250.833,131.5 260.167,131.5 269.5,131.5C 269.5,141.167 269.5,150.833 269.5,160.5C 260.167,160.5 250.833,160.5 241.5,160.5C 241.5,150.833 241.5,141.167 241.5,131.5 Z M 300.5,131.5 C 310.167,131.5 319.833,131.5 329.5,131.5C 329.5,141.167 329.5,150.833 329.5,160.5C 319.833,160.5 310.167,160.5 300.5,160.5C 300.5,150.833 300.5,141.167 300.5,131.5 Z M 181.5,191.5 C 191.167,191.5 200.833,191.5 210.5,191.5C 210.5,201.167 210.5,210.833 210.5,220.5C 200.833,220.5 191.167,220.5 181.5,220.5C 181.5,210.833 181.5,201.167 181.5,191.5 Z M 241.5,191.5 C 250.833,191.5 260.167,191.5 269.5,191.5C 269.5,201.167 269.5,210.833 269.5,220.5C 260.167,220.5 250.833,220.5 241.5,220.5C 241.5,210.833 241.5,201.167 241.5,191.5 Z M 300.5,191.5 C 310.167,191.5 319.833,191.5 329.5,191.5C 329.5,201.167 329.5,210.833 329.5,220.5C 319.833,220.5 310.167,220.5 300.5,220.5C 300.5,210.833 300.5,201.167 300.5,191.5 Z M 213.5,313.5 C 227.256,317.084 241.256,319.084 255.5,319.5C 269.725,318.849 283.725,317.016 297.5,314C 290.96,325.582 284.293,337.082 277.5,348.5C 262.833,349.833 248.167,349.833 233.5,348.5C 226.557,336.941 219.89,325.275 213.5,313.5 Z"/></g>
</svg>
