<?xml version="1.0" encoding="UTF-8"?>
<!DOCTYPE svg PUBLIC "-//W3C//DTD SVG 1.1//EN" "http://www.w3.org/Graphics/SVG/1.1/DTD/svg11.dtd">
<svg xmlns="http://www.w3.org/2000/svg" version="1.1" width="512px" height="512px" style="shape-rendering:geometricPrecision; text-rendering:geometricPrecision; image-rendering:optimizeQuality; fill-rule:evenodd; clip-rule:evenodd" xmlns:xlink="http://www.w3.org/1999/xlink">
<g><path style="opacity:0.993" fill="#000000" d="M 265.5,-0.5 C 277.833,-0.5 290.167,-0.5 302.5,-0.5C 382.359,10.5096 437.859,53.1763 469,127.5C 492.697,199.322 481.031,264.655 434,323.5C 420.224,339.624 404.391,353.124 386.5,364C 365.234,375.483 342.567,382.317 318.5,384.5C 244.18,310.68 170.014,236.68 96,162.5C 98.8749,117.251 117.375,79.7506 151.5,50C 184.267,21.4518 222.267,4.61847 265.5,-0.5 Z"/></g>
<g><path style="opacity:0.973" fill="#000000" d="M 96.5,192.5 C 160.146,255.479 223.479,318.812 286.5,382.5C 285.833,382.833 285.167,383.167 284.5,383.5C 261.755,379.784 239.088,375.618 216.5,371C 200.794,366.882 185.461,367.882 170.5,374C 167.061,376.139 163.894,378.639 161,381.5C 140.167,360.667 119.333,339.833 98.5,319C 107.254,309.408 111.254,298.075 110.5,285C 110.404,278.136 109.904,271.303 109,264.5C 103.864,240.653 99.697,216.653 96.5,192.5 Z"/></g>
<g><path style="opacity:0.977" fill="#000000" d="M -0.5,427.5 C -0.5,426.833 -0.5,426.167 -0.5,425.5C 0.0836846,421.301 1.58368,417.301 4,413.5C 30.6667,386.833 57.3333,360.167 84,333.5C 104.874,354.04 125.374,374.874 145.5,396C 120.207,422.293 94.5407,448.293 68.5,474C 58.1667,481.333 47.8333,481.333 37.5,474C 24.9355,462.105 13.1021,449.605 2,436.5C 1.15876,433.372 0.325426,430.372 -0.5,427.5 Z"/></g>
<g><path style="opacity:0.983" fill="#000000" d="M 511.5,444.5 C 511.5,445.833 511.5,447.167 511.5,448.5C 507.765,482.235 489.432,503.235 456.5,511.5C 448.833,511.5 441.167,511.5 433.5,511.5C 395.896,501.339 378.063,476.672 380,437.5C 383.756,412.489 397.256,394.989 420.5,385C 451.944,374.566 478.111,382.066 499,407.5C 506.659,418.783 510.826,431.116 511.5,444.5 Z"/></g>
</svg>
