<?xml version="1.0" encoding="UTF-8"?>
<!DOCTYPE svg PUBLIC "-//W3C//DTD SVG 1.1//EN" "http://www.w3.org/Graphics/SVG/1.1/DTD/svg11.dtd">
<svg xmlns="http://www.w3.org/2000/svg" version="1.1" width="512px" height="512px" style="shape-rendering:geometricPrecision; text-rendering:geometricPrecision; image-rendering:optimizeQuality; fill-rule:evenodd; clip-rule:evenodd" xmlns:xlink="http://www.w3.org/1999/xlink">
<g><path style="opacity:0.985" fill="#000002" d="M 262.5,-0.5 C 267.833,-0.5 273.167,-0.5 278.5,-0.5C 376.441,11.636 446.941,61.9693 490,150.5C 501.103,176.585 508.269,203.585 511.5,231.5C 511.5,237.167 511.5,242.833 511.5,248.5C 448.058,237.282 393.725,208.949 348.5,163.5C 302.473,118.12 273.806,63.4529 262.5,-0.5 Z"/></g>
<g><path style="opacity:0.992" fill="#000002" d="M 280.5,511.5 C 279.833,511.5 279.167,511.5 278.5,511.5C 272.417,461.682 254.917,416.348 226,375.5C 181.101,311.617 121.601,267.117 47.5,242C 31.8508,237.003 15.8508,233.837 -0.5,232.5C -0.5,231.833 -0.5,231.167 -0.5,230.5C 12.1731,134.36 61.8397,64.8604 148.5,22C 175.22,9.82008 203.22,2.65341 232.5,0.5C 238.61,48.6736 255.444,92.6736 283,132.5C 328.682,198.83 389.849,244.663 466.5,270C 480.892,274.312 495.558,277.145 510.5,278.5C 499.142,376.65 449.142,447.15 360.5,490C 334.723,500.942 308.056,508.109 280.5,511.5 Z"/></g>
<g><path style="opacity:0.985" fill="#000002" d="M -0.5,262.5 C 42.4973,269.439 81.8306,285.272 117.5,310C 176.235,351.071 217.069,405.571 240,473.5C 243.538,486.025 246.371,498.692 248.5,511.5C 242.833,511.5 237.167,511.5 231.5,511.5C 134.1,498.908 63.9336,448.574 21,360.5C 9.89736,334.415 2.73069,307.415 -0.5,279.5C -0.5,273.833 -0.5,268.167 -0.5,262.5 Z"/></g>
</svg>
