<svg xmlns="http://www.w3.org/2000/svg" width="511.638" height="451.661" viewBox="0 0 511.638 451.661">
  <g id="add-user" transform="translate(-0.182 481.616)">
    <path id="Tracé_1" data-name="Tracé 1" d="M199-480.5a88.118,88.118,0,0,0-68.6,69.3c-8.1,41.5,15.9,83.4,56.2,98.1,22.2,8.1,49.4,6.2,69.7-4.7a90.871,90.871,0,0,0,43.9-54.7c3.3-11.5,3.3-33.5,0-45A89.5,89.5,0,0,0,239-479C229.4-481.7,208.5-482.5,199-480.5Z" fill="#4f44ff"/>
    <path id="Tracé_2" data-name="Tracé 2" d="M92.5-455.5a62.855,62.855,0,0,0-44.1,41.9c-2.1,6.6-2.6,10-2.6,18.6,0,12,2.2,20.6,7.7,30.5,9.2,16.3,26.9,28.7,44.7,31.1l4.8.7-3.9-8.4c-8.6-18.8-11.5-32.5-11.5-53.9,0-21.3,2.9-35.1,11.5-53.8l3.8-8.2-2.7.1A36.24,36.24,0,0,0,92.5-455.5Z" fill="#4f44ff"/>
    <path id="Tracé_3" data-name="Tracé 3" d="M352.2-320.9A146.215,146.215,0,0,0,277.1-291c-7.1,5.4-19.1,17.1-25.4,24.9l-2.7,3.3-8.8-1.3c-12.1-1.9-39.2-1.6-51.2.5a158.1,158.1,0,0,0-53.4,19.4c-47.8,28.1-78.2,79.3-78.9,132.8-.2,10.6-.1,11.2,2.8,15.9a18.416,18.416,0,0,0,8,7.4l4.9,2.6,89.5.3,89.4.3,10.6,10.7c18.2,18.4,38.1,30.7,61.6,37.8,76,23.3,156.1-18.5,181.1-94.4,22.6-68.5-9.4-143.9-74.4-175.7-17.1-8.4-33.8-12.9-53.7-14.6C364.3-322.1,364-322.1,352.2-320.9Zm39.3,44.3c37.5,9.6,65.8,38,75.6,76,2.7,10.3,3.6,29.7,1.9,40.4-4.5,28.3-21.5,55.4-44.3,70.5-8.3,5.6-22.9,12.2-32.2,14.7-10.3,2.8-32.7,3.8-42.9,2-37.4-6.6-67.9-31.6-81.1-66.7-3.8-9.9-5.6-19.3-6.2-32.3-1.4-29.3,9.7-57,31-77.7,16.6-16.1,35.7-25.7,58.3-29.3C361.6-280.6,380.2-279.4,391.5-276.6Z" fill="#4f44ff"/>
    <path id="Tracé_4" data-name="Tracé 4" d="M358-236.4c-9.6,4.2-13,11.6-13,28.6V-197H335a105.907,105.907,0,0,0-14.8,1c-17.6,3.8-22.1,27.1-7.3,37.5,4.2,2.9,4.6,3,18.2,3.3l13.9.4v11.1c0,6.2.5,12.8,1,14.8,3.1,11,14.3,17.8,24.7,15a19.887,19.887,0,0,0,13.6-11c2.5-5.1,2.7-6.3,2.7-17.7v-12.2l13.9-.4c13.7-.3,14-.4,18.3-3.3,11.1-7.9,12.3-23.2,2.4-32.3-5.3-4.9-10.6-6.2-24.6-6.2H387v-11.3c0-13.3-1-17.5-5.3-22.4C375.8-237.4,365.9-239.8,358-236.4Z" fill="#4f44ff"/>
    <path id="Tracé_5" data-name="Tracé 5" d="M95.5-289.9c-44.8,5-83.8,40.3-93,84.4C.1-194-.5-181.2,1-176.5c1.7,5.2,7.3,11.1,12.4,13,7.6,2.9,8.3,2.4,12.7-10A203.968,203.968,0,0,1,119-282.7l10.5-5.8-4-.6A136.59,136.59,0,0,0,95.5-289.9Z" fill="#4f44ff"/>
  </g>
</svg>
