<svg xmlns="http://www.w3.org/2000/svg" width="511.6" height="512.135" viewBox="0 0 511.6 512.135">
  <g id="writing" transform="translate(0.1 512.035)">
    <path id="Tracé_6" data-name="Tracé 6" d="M34.5-510.6a41.9,41.9,0,0,0-21,12.1A43.991,43.991,0,0,0,1.1-476.2C-.5-468.6-.5-43.4,1.1-35.8A45.625,45.625,0,0,0,35.8-1.1C43.2.5,339.6.5,347.2-1.1a45.625,45.625,0,0,0,34.7-34.7c.7-3.4,1.1-19.3,1.1-45.4v-40l-11.1,10.3c-6.1,5.7-12.7,11.6-14.7,13-4.8,3.4-88.9,42.6-96.5,45-7.3,2.3-18.4,2.5-25.8.3-23.6-6.9-37.5-32.8-30-56.1,1-3.2,9.9-23.1,19.8-44.3s19.5-41.7,21.3-45.5c3.1-6.6,6.7-10.5,70.1-74l66.9-67v-65.7c0-45.2-.4-67.4-1.1-71a45.625,45.625,0,0,0-34.7-34.7C339.2-512.6,41.3-512.3,34.5-510.6ZM311-413a15.784,15.784,0,0,1,8,13,15.784,15.784,0,0,1-8,13c-3.9,2-5.6,2-119.1,2H76.8l-4-2.2c-10.1-5.7-10.2-19.4-.2-25.4l3.9-2.4H191.8C305.4-415,307.1-415,311-413Zm-48,80a15.784,15.784,0,0,1,8,13,15.784,15.784,0,0,1-8,13c-3.8,2-5.7,2-95.1,2H76.8l-4-2.2c-10.1-5.7-10.2-19.4-.2-25.4l3.9-2.4h91.3C257.3-335,259.2-335,263-333Zm-48,80a15.784,15.784,0,0,1,8,13,15.784,15.784,0,0,1-8,13c-3.8,1.9-5.7,2-71.1,2H76.8l-4-2.2c-10.1-5.7-10.2-19.4-.2-25.4l3.9-2.4h67.3C209.3-255,211.2-254.9,215-253Z" fill="#4f44ff"/>
    <path id="Tracé_7" data-name="Tracé 7" d="M448.3-357.6c-6.8,2.2-10.1,4.8-23.8,18.6l-13,13,33.8,33.7L479-258.5,492.5-272c16.5-16.4,19-20.7,19-32,0-11.7-2.3-15.4-21.2-34.2-17.5-17.3-21.3-19.8-31.7-20.4A32.443,32.443,0,0,0,448.3-357.6Z" fill="#4f44ff"/>
    <path id="Tracé_8" data-name="Tracé 8" d="M332.8-247.3,275-189.5l-10.8,23C238-111,233-99.5,233-95.5a15.593,15.593,0,0,0,7.2,12.6c6.5,4,9.3,3.1,57-19.2L341-122.5l58.2-57.7,58.3-57.6L424-271.4,390.5-305Z" fill="#4f44ff"/>
  </g>
</svg>
